<mxfile host="Electron" modified="2023-06-09T06:58:50.444Z" agent="Mozilla/5.0 (Windows NT 10.0; Win64; x64) AppleWebKit/537.36 (KHTML, like Gecko) draw.io/21.2.8 Chrome/112.0.5615.165 Electron/24.2.0 Safari/537.36" etag="r7FqJQyxn7Vup9kAXmBz" version="21.2.8" type="device">
  <diagram id="nq1wEX5-kAHQ4XQAT0Hm" name="第1頁">
    <mxGraphModel dx="819" dy="482" grid="1" gridSize="10" guides="1" tooltips="1" connect="1" arrows="1" fold="1" page="1" pageScale="1" pageWidth="827" pageHeight="1169" math="0" shadow="0">
      <root>
        <mxCell id="0" />
        <mxCell id="1" parent="0" />
        <mxCell id="VnLZdu3eDOZszwy7JK2q-1" value="&lt;font color=&quot;#516a8f&quot;&gt;動作者&lt;/font&gt;" style="swimlane;html=1;startSize=20;fillColor=#dae8fc;strokeColor=#516A8F;" parent="1" vertex="1">
          <mxGeometry x="180" y="80" width="250" height="330" as="geometry" />
        </mxCell>
        <mxCell id="VnLZdu3eDOZszwy7JK2q-3" value="&lt;font color=&quot;#516a8f&quot;&gt;點選任一條目&lt;/font&gt;" style="rounded=1;whiteSpace=wrap;html=1;shadow=0;comic=0;labelBackgroundColor=none;strokeWidth=1;fontFamily=Verdana;fontSize=12;align=center;arcSize=15;fillColor=#dae8fc;strokeColor=#516A8F;glass=0;" parent="VnLZdu3eDOZszwy7JK2q-1" vertex="1">
          <mxGeometry x="75" y="110" width="100" height="30" as="geometry" />
        </mxCell>
        <mxCell id="VnLZdu3eDOZszwy7JK2q-9" value="&lt;font color=&quot;#516a8f&quot;&gt;系統&lt;/font&gt;" style="swimlane;html=1;startSize=20;fillColor=#dae8fc;strokeColor=#516A8F;" parent="1" vertex="1">
          <mxGeometry x="430" y="80" width="250" height="330" as="geometry" />
        </mxCell>
        <mxCell id="VnLZdu3eDOZszwy7JK2q-10" style="edgeStyle=none;rounded=0;html=1;labelBackgroundColor=none;startArrow=none;startFill=0;startSize=5;endArrow=classic;endFill=1;endSize=5;jettySize=auto;orthogonalLoop=1;strokeWidth=1;fontFamily=Verdana;fontSize=12;exitX=0.5;exitY=1;exitDx=0;exitDy=0;strokeColor=#516A8F;arcSize=20;entryX=0.5;entryY=0;entryDx=0;entryDy=0;" parent="VnLZdu3eDOZszwy7JK2q-9" source="VnLZdu3eDOZszwy7JK2q-12" edge="1" target="VnLZdu3eDOZszwy7JK2q-15">
          <mxGeometry relative="1" as="geometry">
            <mxPoint x="145" y="155" as="sourcePoint" />
            <mxPoint x="133" y="310" as="targetPoint" />
          </mxGeometry>
        </mxCell>
        <mxCell id="VnLZdu3eDOZszwy7JK2q-11" value="&lt;font color=&quot;#516a8f&quot;&gt;顯示重要公告&lt;/font&gt;" style="rounded=1;whiteSpace=wrap;html=1;shadow=0;comic=0;labelBackgroundColor=none;strokeWidth=1;fontFamily=Verdana;fontSize=12;align=center;arcSize=15;fillColor=#dae8fc;strokeColor=#516A8F;glass=0;" parent="VnLZdu3eDOZszwy7JK2q-9" vertex="1">
          <mxGeometry x="72.5" y="110" width="105" height="30" as="geometry" />
        </mxCell>
        <mxCell id="VnLZdu3eDOZszwy7JK2q-12" value="&lt;font color=&quot;#516a8f&quot;&gt;顯示詳細內容&lt;/font&gt;" style="rounded=1;whiteSpace=wrap;html=1;shadow=0;comic=0;labelBackgroundColor=none;strokeWidth=1;fontFamily=Verdana;fontSize=12;align=center;arcSize=15;fillColor=#dae8fc;strokeColor=#516A8F;glass=0;" parent="VnLZdu3eDOZszwy7JK2q-9" vertex="1">
          <mxGeometry x="75" y="190" width="100" height="30" as="geometry" />
        </mxCell>
        <mxCell id="VnLZdu3eDOZszwy7JK2q-13" value="" style="group" parent="VnLZdu3eDOZszwy7JK2q-9" vertex="1" connectable="0">
          <mxGeometry x="109" y="270" width="32" height="32" as="geometry" />
        </mxCell>
        <mxCell id="VnLZdu3eDOZszwy7JK2q-14" value="" style="ellipse;whiteSpace=wrap;html=1;aspect=fixed;fillColor=#b85450;strokeColor=#f8cecc;" parent="VnLZdu3eDOZszwy7JK2q-13" vertex="1">
          <mxGeometry x="1" y="1" width="30" height="30" as="geometry" />
        </mxCell>
        <mxCell id="VnLZdu3eDOZszwy7JK2q-15" value="" style="ellipse;whiteSpace=wrap;html=1;aspect=fixed;fillColor=none;strokeColor=#B85450;" parent="VnLZdu3eDOZszwy7JK2q-13" vertex="1">
          <mxGeometry width="32" height="32" as="geometry" />
        </mxCell>
        <mxCell id="VnLZdu3eDOZszwy7JK2q-4" value="" style="ellipse;whiteSpace=wrap;html=1;rounded=0;shadow=0;comic=0;labelBackgroundColor=none;strokeWidth=1;fillColor=#d5e8d4;fontFamily=Verdana;fontSize=12;align=center;strokeColor=#82b366;" parent="VnLZdu3eDOZszwy7JK2q-9" vertex="1">
          <mxGeometry x="110" y="40" width="30" height="30" as="geometry" />
        </mxCell>
        <mxCell id="VnLZdu3eDOZszwy7JK2q-6" style="edgeStyle=none;rounded=0;html=1;labelBackgroundColor=none;startArrow=none;startFill=0;startSize=5;endArrow=classic;endFill=1;endSize=5;jettySize=auto;orthogonalLoop=1;strokeWidth=1;fontFamily=Verdana;fontSize=12;exitX=0.5;exitY=1;exitDx=0;exitDy=0;strokeColor=#516A8F;arcSize=20;entryX=0.5;entryY=0;entryDx=0;entryDy=0;" parent="VnLZdu3eDOZszwy7JK2q-9" source="VnLZdu3eDOZszwy7JK2q-4" target="VnLZdu3eDOZszwy7JK2q-11" edge="1">
          <mxGeometry relative="1" as="geometry">
            <mxPoint x="89.55000000000018" y="249.99999999999977" as="sourcePoint" />
            <mxPoint x="125" y="99.99999999999989" as="targetPoint" />
          </mxGeometry>
        </mxCell>
        <mxCell id="VnLZdu3eDOZszwy7JK2q-17" style="edgeStyle=none;rounded=1;html=1;labelBackgroundColor=none;startArrow=none;startFill=0;startSize=5;endArrow=classic;endFill=1;endSize=5;jettySize=auto;orthogonalLoop=1;strokeWidth=1;fontFamily=Verdana;fontSize=12;strokeColor=#516A8F;arcSize=15;exitX=0;exitY=0.5;exitDx=0;exitDy=0;entryX=1;entryY=0.5;entryDx=0;entryDy=0;" parent="1" source="VnLZdu3eDOZszwy7JK2q-11" target="VnLZdu3eDOZszwy7JK2q-3" edge="1">
          <mxGeometry relative="1" as="geometry">
            <mxPoint x="360" y="210" as="sourcePoint" />
            <mxPoint x="310" y="210" as="targetPoint" />
          </mxGeometry>
        </mxCell>
        <mxCell id="VnLZdu3eDOZszwy7JK2q-8" style="edgeStyle=none;rounded=1;html=1;labelBackgroundColor=none;startArrow=none;startFill=0;startSize=5;endArrow=classic;endFill=1;endSize=5;jettySize=auto;orthogonalLoop=1;strokeWidth=1;fontFamily=Verdana;fontSize=12;strokeColor=#516A8F;arcSize=15;exitX=0.5;exitY=1;exitDx=0;exitDy=0;entryX=0;entryY=0.5;entryDx=0;entryDy=0;" parent="1" source="VnLZdu3eDOZszwy7JK2q-3" edge="1" target="VnLZdu3eDOZszwy7JK2q-12">
          <mxGeometry relative="1" as="geometry">
            <mxPoint x="355" y="270" as="sourcePoint" />
            <mxPoint x="560" y="320" as="targetPoint" />
            <Array as="points">
              <mxPoint x="305" y="285" />
            </Array>
          </mxGeometry>
        </mxCell>
      </root>
    </mxGraphModel>
  </diagram>
</mxfile>
